<?xml version="1.0" standalone="no"?><!DOCTYPE svg PUBLIC "-//W3C//DTD SVG 1.1//EN" "http://www.w3.org/Graphics/SVG/1.1/DTD/svg11.dtd"><svg t="1654243207947" class="icon" viewBox="0 0 1026 1024" version="1.1" xmlns="http://www.w3.org/2000/svg" p-id="2093" width="200.390625" height="200" xmlns:xlink="http://www.w3.org/1999/xlink"><defs><style type="text/css">@font-face { font-family: feedback-iconfont; src: url("//at.alicdn.com/t/font_1031158_u69w8yhxdu.woff2?t=1630033759944") format("woff2"), url("//at.alicdn.com/t/font_1031158_u69w8yhxdu.woff?t=1630033759944") format("woff"), url("//at.alicdn.com/t/font_1031158_u69w8yhxdu.ttf?t=1630033759944") format("truetype"); }
</style></defs><path d="M512.832 1022.272c-282.752 0-512.832-230.08-512.832-512.768 0-115.136 37.632-224.128 108.864-315.264 32.64-41.728 92.992-49.088 134.72-16.512 41.792 32.64 49.152 92.992 16.512 134.72-44.48 57.024-68.032 125.12-68.032 196.992 0 176.896 143.936 320.768 320.832 320.768s320.768-143.872 320.768-320.768c0-71.936-23.552-140.032-68.032-196.992-32.704-41.792-25.28-102.144 16.512-134.72 41.728-32.64 102.08-25.28 134.72 16.512 71.168 91.072 108.8 200.064 108.8 315.264-0.064 282.688-230.08 512.768-512.832 512.768zM514.176 541.312l-2.688 0c-52.032 0-94.656-42.56-94.656-94.656l0-349.312c0-52.096 42.624-94.656 94.656-94.656l2.688 0c52.096 0 94.656 42.624 94.656 94.656l0 349.312c0 52.096-42.624 94.656-94.656 94.656z" p-id="2094"></path></svg>